<svg width="42" height="28" viewBox="0 0 42 28" fill="none" xmlns="http://www.w3.org/2000/svg">
<path d="M5.09395 23.4464L0.639871 8.49344C0.00775701 6.37134 1.59745 4.2391 3.81169 4.2391C5.31961 4.2391 6.63689 5.25841 7.01532 6.71807L9.5241 16.3948C9.74554 17.2489 10.3255 17.9656 11.1147 18.3602C12.1854 18.8955 13.4701 18.756 14.401 18.0034L35.6089 0.85657C36.11 0.451424 36.7071 0.178293 37.3411 0.0630205C39.6953 -0.365027 41.8726 1.44175 41.8726 3.8346C41.8726 5.03438 41.3112 6.16502 40.3553 6.89015L14.4827 26.5177C13.4381 27.3101 12.1629 27.7391 10.8517 27.7391C8.19428 27.7391 5.85258 25.9932 5.09395 23.4464Z" fill="#000D60"/>
</svg>
